<svg width="33" height="32" viewBox="0 0 33 32" fill="none" xmlns="http://www.w3.org/2000/svg">
<g clip-path="url(#clip0_2286_10192)">
<path d="M32.0674 6.27024C30.0349 -2.7676 16.9322 0.864836 8.67278 5.31889C-0.970466 10.5081 0.0673686 15.654 1.71061 19.3297C3.26737 22.7459 8.45656 31.4811 18.1863 31.3946C27.6566 31.2216 34.0566 16.1297 32.0674 6.27024Z" fill="#FF7320"/>
<path d="M20.7811 16.5188C20.7811 18.3783 19.2676 19.8918 17.4081 19.8918C15.5487 19.8918 14.0352 18.3783 14.0352 16.5188C14.0352 14.6594 15.5487 13.1459 17.4081 13.1459C19.2676 13.1459 20.7811 14.6594 20.7811 16.5188Z" fill="white"/>
<path d="M10.4893 11.5892C10.4893 12.0216 10.6622 12.4108 10.9649 12.7567C11.3109 13.1027 11.7001 13.2757 12.1325 13.2757C12.5649 13.2757 12.9109 13.1027 13.2568 12.8C13.2568 12.8 17.0622 9.08107 17.4082 8.73512C17.7541 9.08107 21.5595 12.8 21.5595 12.8C21.9055 13.1459 22.2514 13.2757 22.6838 13.2757C23.1163 13.2757 23.5055 13.1027 23.8514 12.7567C24.1541 12.4108 24.3271 12.0216 24.3271 11.5892C24.3271 11.1567 24.1541 10.8108 23.8514 10.4649L18.6622 5.27566C18.3163 4.92972 17.8839 4.7135 17.4082 4.7135C16.9325 4.7135 16.5001 4.88647 16.1541 5.27566L10.9649 10.4649C10.6622 10.8108 10.4893 11.2 10.4893 11.5892Z" fill="#F8BC8D"/>
<path d="M24.3271 21.4486C24.3271 21.0161 24.1541 20.627 23.8514 20.281C23.5055 19.9351 23.1163 19.7621 22.6838 19.7621C22.2514 19.7621 21.9055 19.9351 21.5595 20.2378C21.5595 20.2378 17.7541 23.9567 17.4082 24.3026C17.0622 23.9567 13.2568 20.2378 13.2568 20.2378C12.9109 19.8918 12.5649 19.7621 12.1325 19.7621C11.7001 19.7621 11.3109 19.9351 10.9649 20.281C10.6622 20.627 10.4893 21.0161 10.4893 21.4486C10.4893 21.881 10.6622 22.2269 10.9649 22.5729L16.1541 27.7621C16.5001 28.108 16.9325 28.3242 17.4082 28.3242C17.8839 28.3242 18.3163 28.1513 18.6622 27.7621L23.8514 22.5729C24.1541 22.2269 24.3271 21.8378 24.3271 21.4486Z" fill="white"/>
</g>
<defs>
<clipPath id="clip0_2286_10192">
<rect width="32" height="31.1351" fill="white" transform="translate(0.5 0.432373)"/>
</clipPath>
</defs>
</svg>
